<svg xmlns="http://www.w3.org/2000/svg" viewBox="0 0 512 512" fill="none">
  <rect width="512" height="512" rx="108" fill="#0a0a14"/>
  <!-- Ark hull -->
  <path d="M128 320 C128 320 160 384 256 384 C352 384 384 320 384 320 L368 336 C368 336 336 384 256 384 C176 384 144 336 144 336 Z" fill="#6366f1" opacity="0.3"/>
  <path d="M104 312 C104 312 144 392 256 392 C368 392 408 312 408 312" stroke="#818cf8" stroke-width="16" stroke-linecap="round" fill="none"/>
  <!-- API connection lines -->
  <line x1="176" y1="168" x2="176" y2="280" stroke="#6366f1" stroke-width="12" stroke-linecap="round" opacity="0.6"/>
  <line x1="256" y1="128" x2="256" y2="280" stroke="#818cf8" stroke-width="12" stroke-linecap="round"/>
  <line x1="336" y1="168" x2="336" y2="280" stroke="#6366f1" stroke-width="12" stroke-linecap="round" opacity="0.6"/>
  <!-- Connection dots -->
  <circle cx="176" cy="152" r="16" fill="#6366f1"/>
  <circle cx="256" cy="112" r="20" fill="#818cf8"/>
  <circle cx="336" cy="152" r="16" fill="#6366f1"/>
  <!-- Cross beams -->
  <line x1="176" y1="220" x2="336" y2="220" stroke="#6366f1" stroke-width="8" stroke-linecap="round" opacity="0.4"/>
  <line x1="176" y1="260" x2="336" y2="260" stroke="#6366f1" stroke-width="8" stroke-linecap="round" opacity="0.3"/>
</svg>
